<?xml version="1.0" standalone="no"?>
<!DOCTYPE svg PUBLIC "-//W3C//DTD SVG 20010904//EN"
 "http://www.w3.org/TR/2001/REC-SVG-20010904/DTD/svg10.dtd">
<svg version="1.0" xmlns="http://www.w3.org/2000/svg"
 width="358.000000pt" height="358.000000pt" viewBox="0 0 358.000000 358.000000"
 preserveAspectRatio="xMidYMid meet">
<metadata>
Created by potrace 1.14, written by Peter Selinger 2001-2017
</metadata>
<g transform="translate(0.000000,358.000000) scale(0.100000,-0.100000)"
fill="#000000" stroke="none">
<path d="M1467 2659 c-232 -27 -510 -120 -777 -261 -205 -108 -341 -218 -400
-322 -37 -65 -44 -93 -41 -166 3 -81 5 -90 12 -90 4 0 6 -8 5 -17 0 -11 -18
-25 -44 -36 -50 -20 -194 -110 -213 -133 -11 -13 -9 -15 12 -10 23 5 191 31
256 40 27 3 36 -1 60 -32 15 -20 47 -56 71 -80 25 -24 43 -44 41 -46 -2 -2
-38 -18 -79 -37 -161 -72 -244 -138 -236 -185 3 -15 12 -34 20 -43 27 -30 47
-89 41 -124 -13 -71 -13 -105 1 -134 21 -42 53 -57 110 -50 39 4 47 2 51 -14
7 -25 40 -8 54 29 l11 27 13 -25 c7 -14 11 -28 9 -32 -8 -12 4 -10 36 7 27 14
34 27 33 63 -1 14 7 15 25 3 12 -7 19 -25 21 -55 2 -17 35 20 52 59 26 57 25
129 -3 155 -28 25 -21 31 43 36 88 7 145 40 204 118 l26 34 72 -6 c150 -14
536 -6 687 13 19 2 58 7 85 10 28 4 57 8 65 10 8 2 36 6 61 9 76 10 194 43
246 69 26 14 80 48 118 76 74 54 98 65 136 59 24 -3 25 -6 43 -103 6 -35 26
-100 33 -111 5 -6 28 -22 53 -35 36 -19 61 -23 124 -24 55 0 81 4 83 13 6 17
33 15 55 -5 11 -10 18 -12 19 -5 1 7 2 18 3 25 1 6 -4 21 -11 32 -19 28 -16
38 8 32 28 -7 34 14 14 53 -16 31 -16 32 4 25 19 -6 20 -4 10 25 -12 34 -27
44 -79 55 -50 10 -64 27 -101 117 -34 81 -52 106 -105 144 l-29 22 35 37 c56
58 140 94 240 100 109 8 186 29 230 64 19 15 73 56 120 91 115 86 175 151 194
208 18 53 23 115 11 152 -8 29 -53 80 -70 80 -6 0 -32 13 -57 30 -73 48 -90
48 -203 -8 -55 -27 -113 -52 -130 -57 -16 -5 -33 -9 -37 -10 -5 -2 -16 -3 -26
-4 -10 0 -55 -23 -99 -50 -95 -58 -142 -72 -144 -44 -6 98 -35 164 -82 186
-32 15 -112 31 -217 43 -88 9 -698 12 -773 3z m476 -27 c11 -12 18 -24 15 -27
-3 -4 -37 -8 -74 -10 -56 -2 -80 2 -133 24 -61 24 -63 26 -35 32 16 3 69 5
117 4 75 -2 92 -6 110 -23z m-278 6 c25 -14 22 -15 -62 -28 -130 -21 -305 -18
-282 4 2 2 22 7 45 10 22 4 60 10 83 14 84 14 189 14 216 0z m473 0 c20 -2 85
-69 75 -79 -5 -5 -36 -2 -69 6 -34 8 -73 16 -88 19 -27 5 -96 50 -96 63 0 3
37 3 83 -1 45 -4 88 -8 95 -8z m202 -14 c70 -10 109 -25 129 -50 20 -26 36
-62 29 -69 -2 -2 -52 4 -112 14 -108 17 -109 17 -148 60 -21 24 -38 47 -38 52
0 8 63 5 140 -7z m-1050 -24 c13 -8 13 -10 -2 -10 -10 0 -51 -11 -93 -24 -41
-13 -77 -20 -80 -16 -5 8 41 27 115 48 46 13 43 13 60 2z m456 -15 c27 -8 59
-15 72 -15 25 0 27 -7 8 -32 -13 -18 -13 -45 -2 -180 8 -86 6 -88 -82 -150
l-43 -30 -74 15 c-41 9 -87 22 -102 29 -29 14 -31 25 -18 173 2 17 3 51 4 77
1 57 28 93 86 113 52 18 91 18 151 0z m-326 -20 c63 -11 67 -14 63 -43 -2 -15
-5 -54 -8 -87 -13 -192 -13 -195 -47 -227 -35 -33 -107 -82 -123 -85 -5 0 -39
13 -75 30 -59 29 -66 36 -72 70 -13 63 -3 208 16 245 15 29 15 33 1 38 -40 16
11 45 120 69 14 3 83 -3 125 -10z m595 1 c146 -30 177 -36 193 -36 29 0 64
-72 56 -115 -3 -19 -9 -35 -13 -35 -4 0 -8 -6 -8 -13 0 -17 -84 -147 -107
-166 -19 -16 -62 -10 -177 23 -66 19 -88 34 -93 61 -23 124 -25 217 -5 241 38
46 77 56 154 40z m-885 -57 c0 -3 -35 -9 -78 -11 -58 -4 -100 -15 -166 -42
-91 -38 -147 -45 -66 -9 84 38 155 66 210 83 50 16 56 16 77 1 12 -9 23 -19
23 -22z m1308 -18 c41 -11 76 -22 79 -25 9 -8 10 -131 2 -154 -6 -15 -14 -20
-31 -16 -13 2 -36 7 -53 9 -45 8 -66 15 -107 32 -31 13 -38 21 -38 44 0 15 4
30 9 33 13 8 9 27 -12 56 -13 18 -14 26 -4 32 20 13 78 9 155 -11z m-1327 -16
c17 -6 18 -14 14 -88 -2 -45 -7 -104 -10 -132 -3 -27 -6 -56 -7 -62 -1 -7 -4
-13 -8 -13 -3 0 -41 -33 -85 -74 -43 -40 -83 -73 -89 -72 -29 6 -64 21 -99 44
l-38 26 3 105 3 106 -27 13 c-16 7 -28 19 -28 26 0 17 153 92 222 110 57 14
122 19 149 11z m2009 -20 c25 -13 70 -63 70 -79 0 -12 -78 -5 -109 10 -38 19
-76 12 -109 -19 -24 -22 -72 -32 -72 -14 0 5 10 25 22 45 38 61 135 89 198 57z
m-2391 -72 c-8 -9 -14 -27 -14 -40 -1 -21 -10 -28 -55 -44 -30 -10 -58 -23
-64 -29 -15 -15 -33 -12 -40 5 -7 20 18 42 106 88 82 42 86 43 67 20z m2451
-48 c0 -19 -29 -53 -64 -74 -64 -40 -175 -19 -206 38 -10 19 -8 21 16 21 16 0
36 -10 50 -25 16 -17 33 -25 56 -25 37 1 55 12 80 51 16 25 68 36 68 14z
m-2426 -139 c-1 -50 -7 -93 -16 -110 -15 -29 -176 -196 -189 -196 -10 0 -69
74 -98 122 -29 48 -25 117 7 151 29 31 187 114 238 125 23 5 43 5 49 0 6 -5 9
-46 9 -92z m1691 79 c32 -9 65 -21 72 -27 19 -16 9 -147 -13 -163 -19 -14 -29
-11 -202 49 -114 39 -122 43 -122 57 0 11 2 13 52 73 l32 38 61 -6 c34 -3 88
-13 120 -21z m-1921 -40 c-77 -61 -117 -51 -48 12 46 41 49 43 58 23 7 -16 5
-24 -10 -35z m1465 -46 c107 -37 129 -51 126 -81 -1 -13 -3 -23 -4 -23 -2 0
-4 -11 -7 -24 -2 -14 -9 -30 -14 -36 -5 -7 -8 -14 -5 -16 11 -12 -76 -107
-124 -136 -70 -42 -156 -62 -176 -42 -14 14 -53 187 -60 265 -4 49 3 60 65
104 52 36 64 36 199 -11z m-1572 -59 c-16 -37 -28 -50 -46 -50 -9 0 -28 -7
-44 -14 -26 -14 -27 -14 -15 7 12 24 23 37 71 84 27 28 33 30 38 15 3 -9 1
-28 -4 -42z m1132 49 c20 -6 59 -22 87 -34 49 -22 52 -26 59 -72 5 -26 9 -52
11 -58 14 -58 17 -79 29 -172 l6 -41 -89 -21 c-100 -24 -220 -28 -244 -8 -21
16 -32 79 -42 243 -4 78 3 97 58 147 32 30 67 34 125 16z m-300 -76 c34 -18
61 -39 69 -56 8 -17 15 -81 18 -168 l4 -140 -46 -20 c-67 -30 -142 -35 -227
-15 -90 21 -92 26 -96 185 l-3 114 72 70 c69 67 72 69 112 64 23 -3 66 -18 97
-34z m1067 -9 c90 -30 160 -60 167 -71 5 -8 -20 -71 -33 -83 -3 -3 -6 -11 -8
-19 -2 -7 -17 -34 -35 -59 -18 -25 -35 -50 -38 -55 -6 -9 -44 11 -84 45 -77
64 -109 89 -120 96 -18 9 -23 56 -13 111 15 80 23 82 164 35z m-1892 -106 c28
-58 32 -73 21 -84 -17 -17 -139 -84 -153 -84 -15 0 -28 78 -23 148 1 26 54 79
85 85 12 2 24 5 28 6 4 0 23 -31 42 -71z m474 20 c23 -14 32 -27 33 -46 0 -15
3 -36 5 -47 9 -42 6 -167 -5 -178 -17 -17 -113 -12 -168 9 -78 29 -145 81
-158 122 -5 18 5 34 58 87 98 98 144 109 235 53z m1317 -131 c22 -17 57 -48
77 -68 l37 -36 -42 -46 c-48 -51 -108 -97 -127 -97 -17 0 -54 43 -94 110 -48
82 -51 101 -18 143 49 65 75 64 167 -6z m-1705 -27 c15 -21 19 -37 14 -52 -17
-58 -102 -208 -117 -208 -28 0 -90 97 -101 157 -5 28 -1 36 27 57 30 23 131
74 149 75 4 1 16 -12 28 -29z m1486 -69 c42 -48 98 -156 90 -177 -5 -13 -90
-42 -145 -49 -16 -2 -34 2 -40 9 -23 27 -68 153 -67 186 1 31 5 35 41 46 66
20 92 17 121 -15z m-1331 -16 c49 -28 56 -40 48 -86 -8 -53 -63 -212 -78 -228
-12 -12 -21 -10 -67 12 -29 14 -70 42 -91 62 l-37 35 15 38 c20 46 61 117 93
160 30 39 59 41 117 7z m1101 -13 c9 -6 74 -126 73 -135 0 -1 4 -15 10 -30 19
-48 14 -56 -46 -73 -32 -8 -66 -18 -75 -20 -24 -7 -50 26 -76 98 -13 35 -26
70 -30 78 -15 31 -2 68 26 78 33 11 103 14 118 4z m-181 -67 c35 -67 58 -128
62 -167 4 -35 2 -38 -33 -53 -20 -8 -54 -18 -74 -21 -31 -5 -39 -2 -52 18 -21
33 -58 151 -74 235 -4 22 29 33 91 30 59 -2 60 -3 80 -42z m-655 -11 c20 -20
10 -275 -13 -310 -9 -16 -100 -8 -174 14 -48 15 -59 22 -62 42 -4 33 15 119
47 203 l25 69 83 -4 c46 -1 88 -8 94 -14z m455 -36 c19 -47 48 -138 58 -179 4
-16 2 -30 -6 -36 -20 -16 -78 -34 -129 -40 -39 -4 -48 -2 -57 15 -15 29 -67
252 -59 252 2 0 21 7 43 15 22 8 61 14 86 15 46 0 47 -1 64 -42z m-273 24 c25
-3 47 -42 63 -109 20 -81 19 -167 -1 -184 -22 -18 -193 -26 -204 -9 -8 13 -6
135 4 220 10 79 32 92 138 82z"/>
</g>
</svg>
